<mxfile host="Electron" modified="2023-04-11T19:54:18.157Z" agent="Mozilla/5.0 (X11; Linux x86_64) AppleWebKit/537.36 (KHTML, like Gecko) draw.io/21.1.2 Chrome/106.0.5249.199 Electron/21.4.3 Safari/537.36" etag="m3lm-z_8x3PUVh3RZYii" version="21.1.2" type="device">
  <diagram name="Page-1" id="9A2BvT344lpXGsGDg7SV">
    <mxGraphModel dx="1555" dy="1134" grid="1" gridSize="10" guides="1" tooltips="1" connect="1" arrows="1" fold="1" page="1" pageScale="1" pageWidth="2500" pageHeight="2500" math="0" shadow="0">
      <root>
        <mxCell id="0" />
        <mxCell id="1" parent="0" />
        <mxCell id="QU2Xibx8c7cKOaqLM-er-19" value="&lt;font style=&quot;font-size: 18px;&quot;&gt;User&lt;/font&gt;" style="shape=table;startSize=30;container=1;collapsible=1;childLayout=tableLayout;fixedRows=1;rowLines=0;fontStyle=1;align=center;resizeLast=1;html=1;" vertex="1" parent="1">
          <mxGeometry x="280" y="160" width="180" height="180" as="geometry" />
        </mxCell>
        <mxCell id="QU2Xibx8c7cKOaqLM-er-20" value="" style="shape=tableRow;horizontal=0;startSize=0;swimlaneHead=0;swimlaneBody=0;fillColor=none;collapsible=0;dropTarget=0;points=[[0,0.5],[1,0.5]];portConstraint=eastwest;top=0;left=0;right=0;bottom=1;fontSize=16;" vertex="1" parent="QU2Xibx8c7cKOaqLM-er-19">
          <mxGeometry y="30" width="180" height="30" as="geometry" />
        </mxCell>
        <mxCell id="QU2Xibx8c7cKOaqLM-er-21" value="&lt;font style=&quot;font-size: 16px;&quot;&gt;PK&lt;/font&gt;" style="shape=partialRectangle;connectable=0;fillColor=none;top=0;left=0;bottom=0;right=0;fontStyle=1;overflow=hidden;whiteSpace=wrap;html=1;" vertex="1" parent="QU2Xibx8c7cKOaqLM-er-20">
          <mxGeometry width="30" height="30" as="geometry">
            <mxRectangle width="30" height="30" as="alternateBounds" />
          </mxGeometry>
        </mxCell>
        <mxCell id="QU2Xibx8c7cKOaqLM-er-22" value="&lt;font style=&quot;font-size: 16px;&quot;&gt;_id&lt;/font&gt;" style="shape=partialRectangle;connectable=0;fillColor=none;top=0;left=0;bottom=0;right=0;align=left;spacingLeft=6;fontStyle=5;overflow=hidden;whiteSpace=wrap;html=1;" vertex="1" parent="QU2Xibx8c7cKOaqLM-er-20">
          <mxGeometry x="30" width="150" height="30" as="geometry">
            <mxRectangle width="150" height="30" as="alternateBounds" />
          </mxGeometry>
        </mxCell>
        <mxCell id="QU2Xibx8c7cKOaqLM-er-23" value="" style="shape=tableRow;horizontal=0;startSize=0;swimlaneHead=0;swimlaneBody=0;fillColor=none;collapsible=0;dropTarget=0;points=[[0,0.5],[1,0.5]];portConstraint=eastwest;top=0;left=0;right=0;bottom=0;" vertex="1" parent="QU2Xibx8c7cKOaqLM-er-19">
          <mxGeometry y="60" width="180" height="30" as="geometry" />
        </mxCell>
        <mxCell id="QU2Xibx8c7cKOaqLM-er-24" value="" style="shape=partialRectangle;connectable=0;fillColor=none;top=0;left=0;bottom=0;right=0;editable=1;overflow=hidden;whiteSpace=wrap;html=1;" vertex="1" parent="QU2Xibx8c7cKOaqLM-er-23">
          <mxGeometry width="30" height="30" as="geometry">
            <mxRectangle width="30" height="30" as="alternateBounds" />
          </mxGeometry>
        </mxCell>
        <mxCell id="QU2Xibx8c7cKOaqLM-er-25" value="userName" style="shape=partialRectangle;connectable=0;fillColor=none;top=0;left=0;bottom=0;right=0;align=left;spacingLeft=6;overflow=hidden;whiteSpace=wrap;html=1;fontSize=16;" vertex="1" parent="QU2Xibx8c7cKOaqLM-er-23">
          <mxGeometry x="30" width="150" height="30" as="geometry">
            <mxRectangle width="150" height="30" as="alternateBounds" />
          </mxGeometry>
        </mxCell>
        <mxCell id="QU2Xibx8c7cKOaqLM-er-26" value="" style="shape=tableRow;horizontal=0;startSize=0;swimlaneHead=0;swimlaneBody=0;fillColor=none;collapsible=0;dropTarget=0;points=[[0,0.5],[1,0.5]];portConstraint=eastwest;top=0;left=0;right=0;bottom=0;" vertex="1" parent="QU2Xibx8c7cKOaqLM-er-19">
          <mxGeometry y="90" width="180" height="30" as="geometry" />
        </mxCell>
        <mxCell id="QU2Xibx8c7cKOaqLM-er-27" value="" style="shape=partialRectangle;connectable=0;fillColor=none;top=0;left=0;bottom=0;right=0;editable=1;overflow=hidden;whiteSpace=wrap;html=1;" vertex="1" parent="QU2Xibx8c7cKOaqLM-er-26">
          <mxGeometry width="30" height="30" as="geometry">
            <mxRectangle width="30" height="30" as="alternateBounds" />
          </mxGeometry>
        </mxCell>
        <mxCell id="QU2Xibx8c7cKOaqLM-er-28" value="password" style="shape=partialRectangle;connectable=0;fillColor=none;top=0;left=0;bottom=0;right=0;align=left;spacingLeft=6;overflow=hidden;whiteSpace=wrap;html=1;fontSize=16;" vertex="1" parent="QU2Xibx8c7cKOaqLM-er-26">
          <mxGeometry x="30" width="150" height="30" as="geometry">
            <mxRectangle width="150" height="30" as="alternateBounds" />
          </mxGeometry>
        </mxCell>
        <mxCell id="QU2Xibx8c7cKOaqLM-er-29" value="" style="shape=tableRow;horizontal=0;startSize=0;swimlaneHead=0;swimlaneBody=0;fillColor=none;collapsible=0;dropTarget=0;points=[[0,0.5],[1,0.5]];portConstraint=eastwest;top=0;left=0;right=0;bottom=0;" vertex="1" parent="QU2Xibx8c7cKOaqLM-er-19">
          <mxGeometry y="120" width="180" height="30" as="geometry" />
        </mxCell>
        <mxCell id="QU2Xibx8c7cKOaqLM-er-30" value="" style="shape=partialRectangle;connectable=0;fillColor=none;top=0;left=0;bottom=0;right=0;editable=1;overflow=hidden;whiteSpace=wrap;html=1;" vertex="1" parent="QU2Xibx8c7cKOaqLM-er-29">
          <mxGeometry width="30" height="30" as="geometry">
            <mxRectangle width="30" height="30" as="alternateBounds" />
          </mxGeometry>
        </mxCell>
        <mxCell id="QU2Xibx8c7cKOaqLM-er-31" value="role" style="shape=partialRectangle;connectable=0;fillColor=none;top=0;left=0;bottom=0;right=0;align=left;spacingLeft=6;overflow=hidden;whiteSpace=wrap;html=1;fontSize=16;" vertex="1" parent="QU2Xibx8c7cKOaqLM-er-29">
          <mxGeometry x="30" width="150" height="30" as="geometry">
            <mxRectangle width="150" height="30" as="alternateBounds" />
          </mxGeometry>
        </mxCell>
        <mxCell id="QU2Xibx8c7cKOaqLM-er-114" style="shape=tableRow;horizontal=0;startSize=0;swimlaneHead=0;swimlaneBody=0;fillColor=none;collapsible=0;dropTarget=0;points=[[0,0.5],[1,0.5]];portConstraint=eastwest;top=0;left=0;right=0;bottom=0;" vertex="1" parent="QU2Xibx8c7cKOaqLM-er-19">
          <mxGeometry y="150" width="180" height="30" as="geometry" />
        </mxCell>
        <mxCell id="QU2Xibx8c7cKOaqLM-er-115" style="shape=partialRectangle;connectable=0;fillColor=none;top=0;left=0;bottom=0;right=0;editable=1;overflow=hidden;whiteSpace=wrap;html=1;" vertex="1" parent="QU2Xibx8c7cKOaqLM-er-114">
          <mxGeometry width="30" height="30" as="geometry">
            <mxRectangle width="30" height="30" as="alternateBounds" />
          </mxGeometry>
        </mxCell>
        <mxCell id="QU2Xibx8c7cKOaqLM-er-116" value="deposit" style="shape=partialRectangle;connectable=0;fillColor=none;top=0;left=0;bottom=0;right=0;align=left;spacingLeft=6;overflow=hidden;whiteSpace=wrap;html=1;fontSize=16;" vertex="1" parent="QU2Xibx8c7cKOaqLM-er-114">
          <mxGeometry x="30" width="150" height="30" as="geometry">
            <mxRectangle width="150" height="30" as="alternateBounds" />
          </mxGeometry>
        </mxCell>
        <mxCell id="QU2Xibx8c7cKOaqLM-er-32" value="&lt;font style=&quot;font-size: 18px;&quot;&gt;Product&lt;/font&gt;" style="shape=table;startSize=30;container=1;collapsible=1;childLayout=tableLayout;fixedRows=1;rowLines=0;fontStyle=1;align=center;resizeLast=1;html=1;fontSize=14;" vertex="1" parent="1">
          <mxGeometry x="670.0000000000001" y="150" width="210" height="180" as="geometry" />
        </mxCell>
        <mxCell id="QU2Xibx8c7cKOaqLM-er-33" value="" style="shape=tableRow;horizontal=0;startSize=0;swimlaneHead=0;swimlaneBody=0;fillColor=none;collapsible=0;dropTarget=0;points=[[0,0.5],[1,0.5]];portConstraint=eastwest;top=0;left=0;right=0;bottom=1;" vertex="1" parent="QU2Xibx8c7cKOaqLM-er-32">
          <mxGeometry y="30" width="210" height="30" as="geometry" />
        </mxCell>
        <mxCell id="QU2Xibx8c7cKOaqLM-er-34" value="&lt;font style=&quot;font-size: 16px;&quot;&gt;PK&lt;/font&gt;" style="shape=partialRectangle;connectable=0;fillColor=none;top=0;left=0;bottom=0;right=0;fontStyle=1;overflow=hidden;whiteSpace=wrap;html=1;" vertex="1" parent="QU2Xibx8c7cKOaqLM-er-33">
          <mxGeometry width="30" height="30" as="geometry">
            <mxRectangle width="30" height="30" as="alternateBounds" />
          </mxGeometry>
        </mxCell>
        <mxCell id="QU2Xibx8c7cKOaqLM-er-35" value="_id" style="shape=partialRectangle;connectable=0;fillColor=none;top=0;left=0;bottom=0;right=0;align=left;spacingLeft=6;fontStyle=5;overflow=hidden;whiteSpace=wrap;html=1;fontSize=16;" vertex="1" parent="QU2Xibx8c7cKOaqLM-er-33">
          <mxGeometry x="30" width="180" height="30" as="geometry">
            <mxRectangle width="180" height="30" as="alternateBounds" />
          </mxGeometry>
        </mxCell>
        <mxCell id="QU2Xibx8c7cKOaqLM-er-36" value="" style="shape=tableRow;horizontal=0;startSize=0;swimlaneHead=0;swimlaneBody=0;fillColor=none;collapsible=0;dropTarget=0;points=[[0,0.5],[1,0.5]];portConstraint=eastwest;top=0;left=0;right=0;bottom=0;" vertex="1" parent="QU2Xibx8c7cKOaqLM-er-32">
          <mxGeometry y="60" width="210" height="30" as="geometry" />
        </mxCell>
        <mxCell id="QU2Xibx8c7cKOaqLM-er-37" value="" style="shape=partialRectangle;connectable=0;fillColor=none;top=0;left=0;bottom=0;right=0;editable=1;overflow=hidden;whiteSpace=wrap;html=1;" vertex="1" parent="QU2Xibx8c7cKOaqLM-er-36">
          <mxGeometry width="30" height="30" as="geometry">
            <mxRectangle width="30" height="30" as="alternateBounds" />
          </mxGeometry>
        </mxCell>
        <mxCell id="QU2Xibx8c7cKOaqLM-er-38" value="&lt;font style=&quot;font-size: 16px;&quot;&gt;name&lt;/font&gt;" style="shape=partialRectangle;connectable=0;fillColor=none;top=0;left=0;bottom=0;right=0;align=left;spacingLeft=6;overflow=hidden;whiteSpace=wrap;html=1;fontSize=16;" vertex="1" parent="QU2Xibx8c7cKOaqLM-er-36">
          <mxGeometry x="30" width="180" height="30" as="geometry">
            <mxRectangle width="180" height="30" as="alternateBounds" />
          </mxGeometry>
        </mxCell>
        <mxCell id="QU2Xibx8c7cKOaqLM-er-39" value="" style="shape=tableRow;horizontal=0;startSize=0;swimlaneHead=0;swimlaneBody=0;fillColor=none;collapsible=0;dropTarget=0;points=[[0,0.5],[1,0.5]];portConstraint=eastwest;top=0;left=0;right=0;bottom=0;" vertex="1" parent="QU2Xibx8c7cKOaqLM-er-32">
          <mxGeometry y="90" width="210" height="30" as="geometry" />
        </mxCell>
        <mxCell id="QU2Xibx8c7cKOaqLM-er-40" value="" style="shape=partialRectangle;connectable=0;fillColor=none;top=0;left=0;bottom=0;right=0;editable=1;overflow=hidden;whiteSpace=wrap;html=1;" vertex="1" parent="QU2Xibx8c7cKOaqLM-er-39">
          <mxGeometry width="30" height="30" as="geometry">
            <mxRectangle width="30" height="30" as="alternateBounds" />
          </mxGeometry>
        </mxCell>
        <mxCell id="QU2Xibx8c7cKOaqLM-er-41" value="cost" style="shape=partialRectangle;connectable=0;fillColor=none;top=0;left=0;bottom=0;right=0;align=left;spacingLeft=6;overflow=hidden;whiteSpace=wrap;html=1;fontSize=16;" vertex="1" parent="QU2Xibx8c7cKOaqLM-er-39">
          <mxGeometry x="30" width="180" height="30" as="geometry">
            <mxRectangle width="180" height="30" as="alternateBounds" />
          </mxGeometry>
        </mxCell>
        <mxCell id="QU2Xibx8c7cKOaqLM-er-42" value="" style="shape=tableRow;horizontal=0;startSize=0;swimlaneHead=0;swimlaneBody=0;fillColor=none;collapsible=0;dropTarget=0;points=[[0,0.5],[1,0.5]];portConstraint=eastwest;top=0;left=0;right=0;bottom=0;" vertex="1" parent="QU2Xibx8c7cKOaqLM-er-32">
          <mxGeometry y="120" width="210" height="30" as="geometry" />
        </mxCell>
        <mxCell id="QU2Xibx8c7cKOaqLM-er-43" value="" style="shape=partialRectangle;connectable=0;fillColor=none;top=0;left=0;bottom=0;right=0;editable=1;overflow=hidden;whiteSpace=wrap;html=1;" vertex="1" parent="QU2Xibx8c7cKOaqLM-er-42">
          <mxGeometry width="30" height="30" as="geometry">
            <mxRectangle width="30" height="30" as="alternateBounds" />
          </mxGeometry>
        </mxCell>
        <mxCell id="QU2Xibx8c7cKOaqLM-er-44" value="amountAvailable" style="shape=partialRectangle;connectable=0;fillColor=none;top=0;left=0;bottom=0;right=0;align=left;spacingLeft=6;overflow=hidden;whiteSpace=wrap;html=1;fontSize=16;" vertex="1" parent="QU2Xibx8c7cKOaqLM-er-42">
          <mxGeometry x="30" width="180" height="30" as="geometry">
            <mxRectangle width="180" height="30" as="alternateBounds" />
          </mxGeometry>
        </mxCell>
        <mxCell id="QU2Xibx8c7cKOaqLM-er-151" style="shape=tableRow;horizontal=0;startSize=0;swimlaneHead=0;swimlaneBody=0;fillColor=none;collapsible=0;dropTarget=0;points=[[0,0.5],[1,0.5]];portConstraint=eastwest;top=0;left=0;right=0;bottom=0;" vertex="1" parent="QU2Xibx8c7cKOaqLM-er-32">
          <mxGeometry y="150" width="210" height="30" as="geometry" />
        </mxCell>
        <mxCell id="QU2Xibx8c7cKOaqLM-er-152" value="FK" style="shape=partialRectangle;connectable=0;fillColor=none;top=0;left=0;bottom=0;right=0;editable=1;overflow=hidden;whiteSpace=wrap;html=1;" vertex="1" parent="QU2Xibx8c7cKOaqLM-er-151">
          <mxGeometry width="30" height="30" as="geometry">
            <mxRectangle width="30" height="30" as="alternateBounds" />
          </mxGeometry>
        </mxCell>
        <mxCell id="QU2Xibx8c7cKOaqLM-er-153" value="sellerID" style="shape=partialRectangle;connectable=0;fillColor=none;top=0;left=0;bottom=0;right=0;align=left;spacingLeft=6;overflow=hidden;whiteSpace=wrap;html=1;fontSize=16;" vertex="1" parent="QU2Xibx8c7cKOaqLM-er-151">
          <mxGeometry x="30" width="180" height="30" as="geometry">
            <mxRectangle width="180" height="30" as="alternateBounds" />
          </mxGeometry>
        </mxCell>
        <mxCell id="QU2Xibx8c7cKOaqLM-er-45" value="&lt;font style=&quot;font-size: 18px;&quot;&gt;Order&lt;/font&gt;" style="shape=table;startSize=30;container=1;collapsible=1;childLayout=tableLayout;fixedRows=1;rowLines=0;fontStyle=1;align=center;resizeLast=1;html=1;" vertex="1" parent="1">
          <mxGeometry x="440.00000000000006" y="360" width="180" height="120" as="geometry" />
        </mxCell>
        <mxCell id="QU2Xibx8c7cKOaqLM-er-46" value="" style="shape=tableRow;horizontal=0;startSize=0;swimlaneHead=0;swimlaneBody=0;fillColor=none;collapsible=0;dropTarget=0;points=[[0,0.5],[1,0.5]];portConstraint=eastwest;top=0;left=0;right=0;bottom=1;" vertex="1" parent="QU2Xibx8c7cKOaqLM-er-45">
          <mxGeometry y="30" width="180" height="30" as="geometry" />
        </mxCell>
        <mxCell id="QU2Xibx8c7cKOaqLM-er-47" value="&lt;font style=&quot;font-size: 16px;&quot;&gt;PK&lt;/font&gt;" style="shape=partialRectangle;connectable=0;fillColor=none;top=0;left=0;bottom=0;right=0;fontStyle=1;overflow=hidden;whiteSpace=wrap;html=1;" vertex="1" parent="QU2Xibx8c7cKOaqLM-er-46">
          <mxGeometry width="30" height="30" as="geometry">
            <mxRectangle width="30" height="30" as="alternateBounds" />
          </mxGeometry>
        </mxCell>
        <mxCell id="QU2Xibx8c7cKOaqLM-er-48" value="_id" style="shape=partialRectangle;connectable=0;fillColor=none;top=0;left=0;bottom=0;right=0;align=left;spacingLeft=6;fontStyle=5;overflow=hidden;whiteSpace=wrap;html=1;fontSize=16;" vertex="1" parent="QU2Xibx8c7cKOaqLM-er-46">
          <mxGeometry x="30" width="150" height="30" as="geometry">
            <mxRectangle width="150" height="30" as="alternateBounds" />
          </mxGeometry>
        </mxCell>
        <mxCell id="QU2Xibx8c7cKOaqLM-er-49" value="" style="shape=tableRow;horizontal=0;startSize=0;swimlaneHead=0;swimlaneBody=0;fillColor=none;collapsible=0;dropTarget=0;points=[[0,0.5],[1,0.5]];portConstraint=eastwest;top=0;left=0;right=0;bottom=0;" vertex="1" parent="QU2Xibx8c7cKOaqLM-er-45">
          <mxGeometry y="60" width="180" height="30" as="geometry" />
        </mxCell>
        <mxCell id="QU2Xibx8c7cKOaqLM-er-50" value="" style="shape=partialRectangle;connectable=0;fillColor=none;top=0;left=0;bottom=0;right=0;editable=1;overflow=hidden;whiteSpace=wrap;html=1;" vertex="1" parent="QU2Xibx8c7cKOaqLM-er-49">
          <mxGeometry width="30" height="30" as="geometry">
            <mxRectangle width="30" height="30" as="alternateBounds" />
          </mxGeometry>
        </mxCell>
        <mxCell id="QU2Xibx8c7cKOaqLM-er-51" value="userID" style="shape=partialRectangle;connectable=0;fillColor=none;top=0;left=0;bottom=0;right=0;align=left;spacingLeft=6;overflow=hidden;whiteSpace=wrap;html=1;fontSize=16;" vertex="1" parent="QU2Xibx8c7cKOaqLM-er-49">
          <mxGeometry x="30" width="150" height="30" as="geometry">
            <mxRectangle width="150" height="30" as="alternateBounds" />
          </mxGeometry>
        </mxCell>
        <mxCell id="QU2Xibx8c7cKOaqLM-er-52" value="" style="shape=tableRow;horizontal=0;startSize=0;swimlaneHead=0;swimlaneBody=0;fillColor=none;collapsible=0;dropTarget=0;points=[[0,0.5],[1,0.5]];portConstraint=eastwest;top=0;left=0;right=0;bottom=0;" vertex="1" parent="QU2Xibx8c7cKOaqLM-er-45">
          <mxGeometry y="90" width="180" height="30" as="geometry" />
        </mxCell>
        <mxCell id="QU2Xibx8c7cKOaqLM-er-53" value="" style="shape=partialRectangle;connectable=0;fillColor=none;top=0;left=0;bottom=0;right=0;editable=1;overflow=hidden;whiteSpace=wrap;html=1;" vertex="1" parent="QU2Xibx8c7cKOaqLM-er-52">
          <mxGeometry width="30" height="30" as="geometry">
            <mxRectangle width="30" height="30" as="alternateBounds" />
          </mxGeometry>
        </mxCell>
        <mxCell id="QU2Xibx8c7cKOaqLM-er-54" value="productID" style="shape=partialRectangle;connectable=0;fillColor=none;top=0;left=0;bottom=0;right=0;align=left;spacingLeft=6;overflow=hidden;whiteSpace=wrap;html=1;fontSize=16;" vertex="1" parent="QU2Xibx8c7cKOaqLM-er-52">
          <mxGeometry x="30" width="150" height="30" as="geometry">
            <mxRectangle width="150" height="30" as="alternateBounds" />
          </mxGeometry>
        </mxCell>
        <mxCell id="QU2Xibx8c7cKOaqLM-er-65" value="" style="edgeStyle=orthogonalEdgeStyle;fontSize=12;html=1;endArrow=ERoneToMany;rounded=0;exitX=0;exitY=0.5;exitDx=0;exitDy=0;entryX=1;entryY=0.5;entryDx=0;entryDy=0;" edge="1" parent="1" source="QU2Xibx8c7cKOaqLM-er-33" target="QU2Xibx8c7cKOaqLM-er-52">
          <mxGeometry width="100" height="100" relative="1" as="geometry">
            <mxPoint x="569.9000000000001" y="50" as="sourcePoint" />
            <mxPoint x="669.9000000000001" y="-50" as="targetPoint" />
          </mxGeometry>
        </mxCell>
        <mxCell id="QU2Xibx8c7cKOaqLM-er-66" value="" style="edgeStyle=orthogonalEdgeStyle;fontSize=12;html=1;endArrow=ERoneToMany;rounded=0;exitX=0;exitY=0.5;exitDx=0;exitDy=0;entryX=0;entryY=0.5;entryDx=0;entryDy=0;" edge="1" parent="1" source="QU2Xibx8c7cKOaqLM-er-20" target="QU2Xibx8c7cKOaqLM-er-49">
          <mxGeometry width="100" height="100" relative="1" as="geometry">
            <mxPoint x="-80.10000000000002" y="330" as="sourcePoint" />
            <mxPoint x="19.899999999999977" y="230" as="targetPoint" />
          </mxGeometry>
        </mxCell>
        <mxCell id="QU2Xibx8c7cKOaqLM-er-155" value="" style="edgeStyle=orthogonalEdgeStyle;fontSize=12;html=1;endArrow=ERoneToMany;rounded=0;exitX=1;exitY=0.5;exitDx=0;exitDy=0;" edge="1" parent="1" source="QU2Xibx8c7cKOaqLM-er-20" target="QU2Xibx8c7cKOaqLM-er-151">
          <mxGeometry width="100" height="100" relative="1" as="geometry">
            <mxPoint x="520" y="260" as="sourcePoint" />
            <mxPoint x="620" y="160" as="targetPoint" />
          </mxGeometry>
        </mxCell>
        <mxCell id="QU2Xibx8c7cKOaqLM-er-156" value="&lt;font style=&quot;font-size: 20px;&quot;&gt;REST APIs&lt;/font&gt;" style="rounded=0;whiteSpace=wrap;html=1;shadow=0;labelBackgroundColor=none;strokeColor=#6c8ebf;strokeWidth=2;fillColor=#dae8fc;fontSize=14;fontColor=#000000;align=center;" vertex="1" parent="1">
          <mxGeometry x="960" y="160" width="620" height="30" as="geometry" />
        </mxCell>
        <mxCell id="QU2Xibx8c7cKOaqLM-er-183" value="" style="edgeStyle=orthogonalEdgeStyle;rounded=0;orthogonalLoop=1;jettySize=auto;html=1;" edge="1" parent="1" source="QU2Xibx8c7cKOaqLM-er-157" target="QU2Xibx8c7cKOaqLM-er-160">
          <mxGeometry relative="1" as="geometry" />
        </mxCell>
        <mxCell id="QU2Xibx8c7cKOaqLM-er-157" value="&lt;font style=&quot;font-size: 18px;&quot;&gt;Operation&lt;/font&gt;" style="rounded=0;whiteSpace=wrap;html=1;shadow=0;labelBackgroundColor=none;strokeColor=#82b366;strokeWidth=2;fillColor=#d5e8d4;fontSize=14;fontColor=#000000;align=center;" vertex="1" parent="1">
          <mxGeometry x="960" y="190" width="140" height="40" as="geometry" />
        </mxCell>
        <mxCell id="QU2Xibx8c7cKOaqLM-er-158" value="&lt;font style=&quot;font-size: 18px;&quot;&gt;End-points&lt;/font&gt;" style="rounded=0;whiteSpace=wrap;html=1;shadow=0;labelBackgroundColor=none;strokeColor=#82b366;strokeWidth=2;fillColor=#d5e8d4;fontSize=14;fontColor=#000000;align=center;" vertex="1" parent="1">
          <mxGeometry x="1100" y="190" width="240" height="40" as="geometry" />
        </mxCell>
        <mxCell id="QU2Xibx8c7cKOaqLM-er-159" value="" style="rounded=0;whiteSpace=wrap;html=1;shadow=0;labelBackgroundColor=none;strokeColor=#000000;strokeWidth=2;fillColor=#ffffff;fontSize=14;fontColor=#000000;align=center;" vertex="1" parent="1">
          <mxGeometry x="960" y="230" width="140" height="40" as="geometry" />
        </mxCell>
        <mxCell id="QU2Xibx8c7cKOaqLM-er-160" value="User" style="rounded=0;whiteSpace=wrap;html=1;shadow=0;labelBackgroundColor=none;strokeColor=#000000;strokeWidth=2;fillColor=#ffffff;fontSize=16;fontColor=#000000;align=left;perimeterSpacing=0;spacingLeft=5;" vertex="1" parent="1">
          <mxGeometry x="1100" y="230" width="240" height="40" as="geometry" />
        </mxCell>
        <mxCell id="QU2Xibx8c7cKOaqLM-er-184" value="Body" style="rounded=0;whiteSpace=wrap;html=1;shadow=0;labelBackgroundColor=none;strokeColor=#82b366;strokeWidth=2;fillColor=#d5e8d4;fontSize=14;fontColor=#000000;align=center;" vertex="1" parent="1">
          <mxGeometry x="1340" y="190" width="240" height="40" as="geometry" />
        </mxCell>
        <mxCell id="QU2Xibx8c7cKOaqLM-er-185" value="" style="rounded=0;whiteSpace=wrap;html=1;shadow=0;labelBackgroundColor=none;strokeColor=#000000;strokeWidth=2;fillColor=#ffffff;fontSize=14;fontColor=#000000;align=center;" vertex="1" parent="1">
          <mxGeometry x="1340" y="230" width="240" height="40" as="geometry" />
        </mxCell>
        <mxCell id="QU2Xibx8c7cKOaqLM-er-190" value="POST" style="rounded=0;whiteSpace=wrap;html=1;shadow=0;labelBackgroundColor=none;strokeColor=#000000;strokeWidth=2;fillColor=#ffffff;fontSize=14;fontColor=#000000;align=center;" vertex="1" parent="1">
          <mxGeometry x="960" y="270" width="140" height="40" as="geometry" />
        </mxCell>
        <mxCell id="QU2Xibx8c7cKOaqLM-er-191" value="&lt;span style=&quot;white-space: pre;&quot;&gt;	&lt;/span&gt;/register" style="rounded=0;whiteSpace=wrap;html=1;shadow=0;labelBackgroundColor=none;strokeColor=#000000;strokeWidth=2;fillColor=#ffffff;fontSize=16;fontColor=#000000;align=left;perimeterSpacing=0;spacingLeft=5;" vertex="1" parent="1">
          <mxGeometry x="1100" y="270" width="240" height="40" as="geometry" />
        </mxCell>
        <mxCell id="QU2Xibx8c7cKOaqLM-er-192" value="{ userName, Password}" style="rounded=0;whiteSpace=wrap;html=1;shadow=0;labelBackgroundColor=none;strokeColor=#000000;strokeWidth=2;fillColor=#ffffff;fontSize=14;fontColor=#000000;align=center;" vertex="1" parent="1">
          <mxGeometry x="1340" y="270" width="240" height="40" as="geometry" />
        </mxCell>
        <mxCell id="QU2Xibx8c7cKOaqLM-er-193" value="POST" style="rounded=0;whiteSpace=wrap;html=1;shadow=0;labelBackgroundColor=none;strokeColor=#000000;strokeWidth=2;fillColor=#ffffff;fontSize=14;fontColor=#000000;align=center;" vertex="1" parent="1">
          <mxGeometry x="960" y="310" width="140" height="40" as="geometry" />
        </mxCell>
        <mxCell id="QU2Xibx8c7cKOaqLM-er-194" value="&lt;span style=&quot;white-space: pre;&quot;&gt;	&lt;/span&gt;/login" style="rounded=0;whiteSpace=wrap;html=1;shadow=0;labelBackgroundColor=none;strokeColor=#000000;strokeWidth=2;fillColor=#ffffff;fontSize=16;fontColor=#000000;align=left;perimeterSpacing=0;spacingLeft=5;" vertex="1" parent="1">
          <mxGeometry x="1100" y="310" width="240" height="40" as="geometry" />
        </mxCell>
        <mxCell id="QU2Xibx8c7cKOaqLM-er-195" value="{ userName, Password}" style="rounded=0;whiteSpace=wrap;html=1;shadow=0;labelBackgroundColor=none;strokeColor=#000000;strokeWidth=2;fillColor=#ffffff;fontSize=14;fontColor=#000000;align=center;" vertex="1" parent="1">
          <mxGeometry x="1340" y="310" width="240" height="40" as="geometry" />
        </mxCell>
        <mxCell id="QU2Xibx8c7cKOaqLM-er-196" value="GET" style="rounded=0;whiteSpace=wrap;html=1;shadow=0;labelBackgroundColor=none;strokeColor=#000000;strokeWidth=2;fillColor=#ffffff;fontSize=14;fontColor=#000000;align=center;" vertex="1" parent="1">
          <mxGeometry x="960" y="390" width="140" height="40" as="geometry" />
        </mxCell>
        <mxCell id="QU2Xibx8c7cKOaqLM-er-197" value="&lt;span style=&quot;white-space: pre;&quot;&gt;	&lt;/span&gt;/? userName =&amp;nbsp;" style="rounded=0;whiteSpace=wrap;html=1;shadow=0;labelBackgroundColor=none;strokeColor=#000000;strokeWidth=2;fillColor=#ffffff;fontSize=16;fontColor=#000000;align=left;perimeterSpacing=0;spacingLeft=5;" vertex="1" parent="1">
          <mxGeometry x="1100" y="390" width="240" height="40" as="geometry" />
        </mxCell>
        <mxCell id="QU2Xibx8c7cKOaqLM-er-198" value="" style="rounded=0;whiteSpace=wrap;html=1;shadow=0;labelBackgroundColor=none;strokeColor=#000000;strokeWidth=2;fillColor=#ffffff;fontSize=14;fontColor=#000000;align=center;" vertex="1" parent="1">
          <mxGeometry x="1340" y="390" width="240" height="40" as="geometry" />
        </mxCell>
        <mxCell id="QU2Xibx8c7cKOaqLM-er-199" value="PUT" style="rounded=0;whiteSpace=wrap;html=1;shadow=0;labelBackgroundColor=none;strokeColor=#000000;strokeWidth=2;fillColor=#ffffff;fontSize=14;fontColor=#000000;align=center;" vertex="1" parent="1">
          <mxGeometry x="960" y="430" width="140" height="40" as="geometry" />
        </mxCell>
        <mxCell id="QU2Xibx8c7cKOaqLM-er-200" value="&lt;span style=&quot;white-space: pre;&quot;&gt;	&lt;/span&gt;/:userName" style="rounded=0;whiteSpace=wrap;html=1;shadow=0;labelBackgroundColor=none;strokeColor=#000000;strokeWidth=2;fillColor=#ffffff;fontSize=16;fontColor=#000000;align=left;perimeterSpacing=0;spacingLeft=5;" vertex="1" parent="1">
          <mxGeometry x="1100" y="430" width="240" height="40" as="geometry" />
        </mxCell>
        <mxCell id="QU2Xibx8c7cKOaqLM-er-201" value="{ userName, Password}" style="rounded=0;whiteSpace=wrap;html=1;shadow=0;labelBackgroundColor=none;strokeColor=#000000;strokeWidth=2;fillColor=#ffffff;fontSize=14;fontColor=#000000;align=center;" vertex="1" parent="1">
          <mxGeometry x="1340" y="430" width="240" height="40" as="geometry" />
        </mxCell>
        <mxCell id="QU2Xibx8c7cKOaqLM-er-202" value="DELETE" style="rounded=0;whiteSpace=wrap;html=1;shadow=0;labelBackgroundColor=none;strokeColor=#000000;strokeWidth=2;fillColor=#ffffff;fontSize=14;fontColor=#000000;align=center;" vertex="1" parent="1">
          <mxGeometry x="960" y="470" width="140" height="40" as="geometry" />
        </mxCell>
        <mxCell id="QU2Xibx8c7cKOaqLM-er-203" value="&lt;span style=&quot;white-space: pre;&quot;&gt;	&lt;/span&gt;/:userName" style="rounded=0;whiteSpace=wrap;html=1;shadow=0;labelBackgroundColor=none;strokeColor=#000000;strokeWidth=2;fillColor=#ffffff;fontSize=16;fontColor=#000000;align=left;perimeterSpacing=0;spacingLeft=5;" vertex="1" parent="1">
          <mxGeometry x="1100" y="470" width="240" height="40" as="geometry" />
        </mxCell>
        <mxCell id="QU2Xibx8c7cKOaqLM-er-204" value="" style="rounded=0;whiteSpace=wrap;html=1;shadow=0;labelBackgroundColor=none;strokeColor=#000000;strokeWidth=2;fillColor=#ffffff;fontSize=14;fontColor=#000000;align=center;" vertex="1" parent="1">
          <mxGeometry x="1340" y="470" width="240" height="40" as="geometry" />
        </mxCell>
        <mxCell id="QU2Xibx8c7cKOaqLM-er-205" value="" style="rounded=0;whiteSpace=wrap;html=1;shadow=0;labelBackgroundColor=none;strokeColor=#000000;strokeWidth=2;fillColor=#ffffff;fontSize=14;fontColor=#000000;align=center;" vertex="1" parent="1">
          <mxGeometry x="960" y="510" width="140" height="40" as="geometry" />
        </mxCell>
        <mxCell id="QU2Xibx8c7cKOaqLM-er-206" value="Product" style="rounded=0;whiteSpace=wrap;html=1;shadow=0;labelBackgroundColor=none;strokeColor=#000000;strokeWidth=2;fillColor=#ffffff;fontSize=16;fontColor=#000000;align=left;perimeterSpacing=0;spacingLeft=5;" vertex="1" parent="1">
          <mxGeometry x="1100" y="510" width="240" height="40" as="geometry" />
        </mxCell>
        <mxCell id="QU2Xibx8c7cKOaqLM-er-207" value="" style="rounded=0;whiteSpace=wrap;html=1;shadow=0;labelBackgroundColor=none;strokeColor=#000000;strokeWidth=2;fillColor=#ffffff;fontSize=14;fontColor=#000000;align=center;" vertex="1" parent="1">
          <mxGeometry x="1340" y="510" width="240" height="40" as="geometry" />
        </mxCell>
        <mxCell id="QU2Xibx8c7cKOaqLM-er-208" value="POST" style="rounded=0;whiteSpace=wrap;html=1;shadow=0;labelBackgroundColor=none;strokeColor=#000000;strokeWidth=2;fillColor=#ffffff;fontSize=14;fontColor=#000000;align=center;" vertex="1" parent="1">
          <mxGeometry x="960" y="550" width="140" height="40" as="geometry" />
        </mxCell>
        <mxCell id="QU2Xibx8c7cKOaqLM-er-209" value="&lt;span style=&quot;white-space: pre;&quot;&gt;	&lt;/span&gt;/" style="rounded=0;whiteSpace=wrap;html=1;shadow=0;labelBackgroundColor=none;strokeColor=#000000;strokeWidth=2;fillColor=#ffffff;fontSize=16;fontColor=#000000;align=left;perimeterSpacing=0;spacingLeft=5;" vertex="1" parent="1">
          <mxGeometry x="1100" y="550" width="240" height="40" as="geometry" />
        </mxCell>
        <mxCell id="QU2Xibx8c7cKOaqLM-er-210" value="{name, cost, amountAvailable}" style="rounded=0;whiteSpace=wrap;html=1;shadow=0;labelBackgroundColor=none;strokeColor=#000000;strokeWidth=2;fillColor=#ffffff;fontSize=14;fontColor=#000000;align=center;" vertex="1" parent="1">
          <mxGeometry x="1340" y="550" width="240" height="40" as="geometry" />
        </mxCell>
        <mxCell id="QU2Xibx8c7cKOaqLM-er-211" value="GET" style="rounded=0;whiteSpace=wrap;html=1;shadow=0;labelBackgroundColor=none;strokeColor=#000000;strokeWidth=2;fillColor=#ffffff;fontSize=14;fontColor=#000000;align=center;" vertex="1" parent="1">
          <mxGeometry x="960" y="590" width="140" height="40" as="geometry" />
        </mxCell>
        <mxCell id="QU2Xibx8c7cKOaqLM-er-212" value="&lt;span style=&quot;white-space: pre;&quot;&gt;	&lt;/span&gt;/? productName =" style="rounded=0;whiteSpace=wrap;html=1;shadow=0;labelBackgroundColor=none;strokeColor=#000000;strokeWidth=2;fillColor=#ffffff;fontSize=16;fontColor=#000000;align=left;perimeterSpacing=0;spacingLeft=5;" vertex="1" parent="1">
          <mxGeometry x="1100" y="590" width="240" height="40" as="geometry" />
        </mxCell>
        <mxCell id="QU2Xibx8c7cKOaqLM-er-213" value="" style="rounded=0;whiteSpace=wrap;html=1;shadow=0;labelBackgroundColor=none;strokeColor=#000000;strokeWidth=2;fillColor=#ffffff;fontSize=14;fontColor=#000000;align=center;" vertex="1" parent="1">
          <mxGeometry x="1340" y="590" width="240" height="40" as="geometry" />
        </mxCell>
        <mxCell id="QU2Xibx8c7cKOaqLM-er-214" value="PUT" style="rounded=0;whiteSpace=wrap;html=1;shadow=0;labelBackgroundColor=none;strokeColor=#000000;strokeWidth=2;fillColor=#ffffff;fontSize=14;fontColor=#000000;align=center;" vertex="1" parent="1">
          <mxGeometry x="960" y="630" width="140" height="40" as="geometry" />
        </mxCell>
        <mxCell id="QU2Xibx8c7cKOaqLM-er-215" value="&lt;span style=&quot;white-space: pre;&quot;&gt;	&lt;/span&gt;/" style="rounded=0;whiteSpace=wrap;html=1;shadow=0;labelBackgroundColor=none;strokeColor=#000000;strokeWidth=2;fillColor=#ffffff;fontSize=16;fontColor=#000000;align=left;perimeterSpacing=0;spacingLeft=5;" vertex="1" parent="1">
          <mxGeometry x="1100" y="630" width="240" height="40" as="geometry" />
        </mxCell>
        <mxCell id="QU2Xibx8c7cKOaqLM-er-216" value="{name, cost, amountAvailable}" style="rounded=0;whiteSpace=wrap;html=1;shadow=0;labelBackgroundColor=none;strokeColor=#000000;strokeWidth=2;fillColor=#ffffff;fontSize=14;fontColor=#000000;align=center;" vertex="1" parent="1">
          <mxGeometry x="1340" y="630" width="240" height="40" as="geometry" />
        </mxCell>
        <mxCell id="QU2Xibx8c7cKOaqLM-er-217" value="DELETE" style="rounded=0;whiteSpace=wrap;html=1;shadow=0;labelBackgroundColor=none;strokeColor=#000000;strokeWidth=2;fillColor=#ffffff;fontSize=14;fontColor=#000000;align=center;" vertex="1" parent="1">
          <mxGeometry x="960" y="670" width="140" height="40" as="geometry" />
        </mxCell>
        <mxCell id="QU2Xibx8c7cKOaqLM-er-218" value="&lt;span style=&quot;white-space: pre;&quot;&gt;	&lt;/span&gt;/? productName =" style="rounded=0;whiteSpace=wrap;html=1;shadow=0;labelBackgroundColor=none;strokeColor=#000000;strokeWidth=2;fillColor=#ffffff;fontSize=16;fontColor=#000000;align=left;perimeterSpacing=0;spacingLeft=5;" vertex="1" parent="1">
          <mxGeometry x="1100" y="670" width="240" height="40" as="geometry" />
        </mxCell>
        <mxCell id="QU2Xibx8c7cKOaqLM-er-219" value="" style="rounded=0;whiteSpace=wrap;html=1;shadow=0;labelBackgroundColor=none;strokeColor=#000000;strokeWidth=2;fillColor=#ffffff;fontSize=14;fontColor=#000000;align=center;" vertex="1" parent="1">
          <mxGeometry x="1340" y="670" width="240" height="40" as="geometry" />
        </mxCell>
        <mxCell id="QU2Xibx8c7cKOaqLM-er-220" value="" style="rounded=0;whiteSpace=wrap;html=1;shadow=0;labelBackgroundColor=none;strokeColor=#000000;strokeWidth=2;fillColor=#ffffff;fontSize=14;fontColor=#000000;align=center;" vertex="1" parent="1">
          <mxGeometry x="960" y="710" width="140" height="40" as="geometry" />
        </mxCell>
        <mxCell id="QU2Xibx8c7cKOaqLM-er-221" value="Buy" style="rounded=0;whiteSpace=wrap;html=1;shadow=0;labelBackgroundColor=none;strokeColor=#000000;strokeWidth=2;fillColor=#ffffff;fontSize=16;fontColor=#000000;align=left;perimeterSpacing=0;spacingLeft=5;" vertex="1" parent="1">
          <mxGeometry x="1100" y="710" width="240" height="40" as="geometry" />
        </mxCell>
        <mxCell id="QU2Xibx8c7cKOaqLM-er-222" value="" style="rounded=0;whiteSpace=wrap;html=1;shadow=0;labelBackgroundColor=none;strokeColor=#000000;strokeWidth=2;fillColor=#ffffff;fontSize=14;fontColor=#000000;align=center;" vertex="1" parent="1">
          <mxGeometry x="1340" y="710" width="240" height="40" as="geometry" />
        </mxCell>
        <mxCell id="QU2Xibx8c7cKOaqLM-er-223" value="POST" style="rounded=0;whiteSpace=wrap;html=1;shadow=0;labelBackgroundColor=none;strokeColor=#000000;strokeWidth=2;fillColor=#ffffff;fontSize=14;fontColor=#000000;align=center;" vertex="1" parent="1">
          <mxGeometry x="960" y="750" width="140" height="40" as="geometry" />
        </mxCell>
        <mxCell id="QU2Xibx8c7cKOaqLM-er-224" value="&lt;span style=&quot;white-space: pre;&quot;&gt;	&lt;/span&gt;/buy" style="rounded=0;whiteSpace=wrap;html=1;shadow=0;labelBackgroundColor=none;strokeColor=#000000;strokeWidth=2;fillColor=#ffffff;fontSize=16;fontColor=#000000;align=left;perimeterSpacing=0;spacingLeft=5;" vertex="1" parent="1">
          <mxGeometry x="1100" y="750" width="240" height="40" as="geometry" />
        </mxCell>
        <mxCell id="QU2Xibx8c7cKOaqLM-er-225" value="{productName,deposit}" style="rounded=0;whiteSpace=wrap;html=1;shadow=0;labelBackgroundColor=none;strokeColor=#000000;strokeWidth=2;fillColor=#ffffff;fontSize=14;fontColor=#000000;align=center;" vertex="1" parent="1">
          <mxGeometry x="1340" y="750" width="240" height="40" as="geometry" />
        </mxCell>
        <mxCell id="QU2Xibx8c7cKOaqLM-er-226" value="POST" style="rounded=0;whiteSpace=wrap;html=1;shadow=0;labelBackgroundColor=none;strokeColor=#000000;strokeWidth=2;fillColor=#ffffff;fontSize=14;fontColor=#000000;align=center;" vertex="1" parent="1">
          <mxGeometry x="960" y="790" width="140" height="40" as="geometry" />
        </mxCell>
        <mxCell id="QU2Xibx8c7cKOaqLM-er-227" value="&lt;span style=&quot;white-space: pre;&quot;&gt;	&lt;/span&gt;/reset" style="rounded=0;whiteSpace=wrap;html=1;shadow=0;labelBackgroundColor=none;strokeColor=#000000;strokeWidth=2;fillColor=#ffffff;fontSize=16;fontColor=#000000;align=left;perimeterSpacing=0;spacingLeft=5;" vertex="1" parent="1">
          <mxGeometry x="1100" y="790" width="240" height="40" as="geometry" />
        </mxCell>
        <mxCell id="QU2Xibx8c7cKOaqLM-er-228" value="{productName}" style="rounded=0;whiteSpace=wrap;html=1;shadow=0;labelBackgroundColor=none;strokeColor=#000000;strokeWidth=2;fillColor=#ffffff;fontSize=14;fontColor=#000000;align=center;" vertex="1" parent="1">
          <mxGeometry x="1340" y="790" width="240" height="40" as="geometry" />
        </mxCell>
        <mxCell id="QU2Xibx8c7cKOaqLM-er-229" value="GET" style="rounded=0;whiteSpace=wrap;html=1;shadow=0;labelBackgroundColor=none;strokeColor=#000000;strokeWidth=2;fillColor=#ffffff;fontSize=14;fontColor=#000000;align=center;" vertex="1" parent="1">
          <mxGeometry x="960" y="350" width="140" height="40" as="geometry" />
        </mxCell>
        <mxCell id="QU2Xibx8c7cKOaqLM-er-230" value="&lt;span style=&quot;white-space: pre;&quot;&gt;	&lt;/span&gt;/login" style="rounded=0;whiteSpace=wrap;html=1;shadow=0;labelBackgroundColor=none;strokeColor=#000000;strokeWidth=2;fillColor=#ffffff;fontSize=16;fontColor=#000000;align=left;perimeterSpacing=0;spacingLeft=5;" vertex="1" parent="1">
          <mxGeometry x="1100" y="350" width="240" height="40" as="geometry" />
        </mxCell>
        <mxCell id="QU2Xibx8c7cKOaqLM-er-231" value="{ userName, Password}" style="rounded=0;whiteSpace=wrap;html=1;shadow=0;labelBackgroundColor=none;strokeColor=#000000;strokeWidth=2;fillColor=#ffffff;fontSize=14;fontColor=#000000;align=center;" vertex="1" parent="1">
          <mxGeometry x="1340" y="350" width="240" height="40" as="geometry" />
        </mxCell>
      </root>
    </mxGraphModel>
  </diagram>
</mxfile>
